SplineFontDB: 3.2
FontName: RokoLovricJovic
FullName: RokoLovricJovic
FamilyName: RokoLovricJovic
Weight: Regular
Copyright: Copyright (c) 2024, rokoj
UComments: "2024-3-17: Created with FontForge (http://fontforge.org)"
Version: 001.000
ItalicAngle: 0
UnderlinePosition: -100
UnderlineWidth: 50
Ascent: 800
Descent: 200
InvalidEm: 0
LayerCount: 3
Layer: 0 0 "Back" 1
Layer: 1 0 "Fore" 0
Layer: 2 0 "Back 2" 1
XUID: [1021 414 285695963 17113]
OS2Version: 0
OS2_WeightWidthSlopeOnly: 0
OS2_UseTypoMetrics: 1
CreationTime: 1710693185
ModificationTime: 1711042008
OS2TypoAscent: 0
OS2TypoAOffset: 1
OS2TypoDescent: 0
OS2TypoDOffset: 1
OS2TypoLinegap: 0
OS2WinAscent: 0
OS2WinAOffset: 1
OS2WinDescent: 0
OS2WinDOffset: 1
HheadAscent: 0
HheadAOffset: 1
HheadDescent: 0
HheadDOffset: 1
OS2Vendor: 'PfEd'
MarkAttachClasses: 1
DEI: 91125
Encoding: iso8859-2
UnicodeInterp: none
NameList: AGL For New Fonts
DisplaySize: -48
AntiAlias: 1
FitToEm: 0
WinInfo: 0 38 13
BeginPrivate: 0
EndPrivate
BeginChars: 256 31

StartChar: A
Encoding: 65 65 0
Width: 622
Flags: HW
LayerCount: 3
Fore
SplineSet
117 278 m 1
 309 248 l 1
 211 466 l 1
 117 278 l 1
24 14 m 1
 23.4384765625 289.568359375 109.1953125 554.418945312 272 734 c 1
 476 672 l 0
 480 612 l 0
 482 560 l 0
 294 460 l 1
 358 460 l 0
 402 428 l 1
 402 428 574 -6 574 0 c 0
 574 6 382 0 382 0 c 25
 298 198 l 1
 298 198 148 2 148 0 c 0
 148 -2 72 9 24 14 c 1
EndSplineSet
EndChar

StartChar: R
Encoding: 82 82 1
Width: 552
Flags: HW
LayerCount: 3
Fore
SplineSet
532 0 m 1
 30 523 l 1
 30 523 366 -2 366 0 c 0
 366 2 459 0 532 0 c 1
417 496 m 5
 416 498 549 652 440 714 c 0
 331 776 307 735 288 729 c 0
 269 723 248.407929275 653.448795615 251 526 c 4
 254.000001576 378.49376723 418.510743789 496.620824361 417 496 c 5
23 0 m 1
 115.834960938 206.975585938 123.481445312 542.026367188 27 781 c 1
 273 781 l 17
 188.2890625 769.022460938 173.903320312 164.909179688 272 0 c 0
 273.534179688 -2.578125 23 0 23 0 c 1
EndSplineSet
EndChar

StartChar: r
Encoding: 114 114 2
Width: 407
Flags: HW
LayerCount: 3
Fore
SplineSet
245.680664062 374 m 0
 209.53125 364.08984375 130.189453125 332.765625 154.680664062 248 c 0
 181.680664062 154.553710938 344.680664062 189.615234375 344.680664062 191 c 1
 395.778320312 223.385742188 399.424804688 265.63671875 373.680664062 314 c 1
 378.529296875 317.750976562 290.973632812 386.416015625 245.680664062 374 c 0
40.6806640625 0 m 1
 45.6806640625 404 l 25
 234.680664062 401 l 1
 87.6796875 347.28125 67.7763671875 217.125976562 226.680664062 3 c 9
 40.6806640625 0 l 1
EndSplineSet
EndChar

StartChar: o
Encoding: 111 111 3
Width: 387
Flags: HW
LayerCount: 3
Fore
SplineSet
199 84 m 1
 199.068359375 128.46484375 188.012695312 193.913085938 273 192 c 1
 222.14453125 194.389648438 194.181640625 223.221679688 197 276 c 1
 201.794921875 236.10546875 181.659179688 204.583984375 123 186 c 1
 212.231445312 204.387695312 180.796875 117.376953125 199 84 c 1
181 0 m 1
 181 0 33 16 7 168 c 8
 -19 320 121 368 199 374 c 8
 277 380 362.224609375 275.509765625 377 200 c 0
 400.0859375 82.021484375 207.553710938 -22.4609375 181 0 c 1
EndSplineSet
EndChar

StartChar: O
Encoding: 79 79 4
Width: 664
Flags: HW
LayerCount: 3
Fore
SplineSet
328 32 m 1
 339.006835938 199.866210938 339.08984375 377.907226562 556 354 c 1
 334.732421875 370.743164062 373.125976562 546.7890625 358 690 c 1
 330.249023438 504.982421875 282.955078125 353.989257812 134 380 c 1
 365.852539062 357.265625 283.021484375 158.983398438 328 32 c 1
312 2 m 9
 312 2 43.16015625 28.0625 68 358 c 0
 92.9033203125 688.78515625 233.516601562 734.529296875 278 754 c 0
 328.533203125 776.118164062 574.176757812 569.65234375 554 534 c 9
 554 534 647.6328125 406.893554688 542 184 c 0
 427.341796875 -57.9384765625 307.75 6.76171875 312 2 c 9
EndSplineSet
EndChar

StartChar: k
Encoding: 107 107 5
Width: 410
Flags: HW
LayerCount: 3
Fore
SplineSet
330 0 m 1
 68 147 l 1
 388 404 l 1
 216 155 l 1
 330 0 l 1
35 0 m 25
 35 0 213 -2 213 0 c 0
 213 2 102 755 102 755 c 1
 35 0 l 25
EndSplineSet
EndChar

StartChar: K
Encoding: 75 75 6
Width: 663
Flags: HW
LayerCount: 3
Fore
SplineSet
608 0 m 5
 608 3 59 397 59 397 c 1
 646 659 l 1
 479 673 l 1
 11 403 l 1
 11 403 397 -3 397 0 c 0
 397 3 608 0 608 0 c 5
102 0 m 1
 81.4528215233 249.000000004 65.6704365661 497.999999997 100 747 c 9
 262 745 l 1
 199.466012936 498.19313998 214.135036471 249.460674134 258 0 c 9
 102 0 l 1
EndSplineSet
EndChar

StartChar: L
Encoding: 76 76 7
Width: 538
Flags: HW
LayerCount: 3
Fore
SplineSet
136 82 m 1
 136 82 83 140 145 176 c 0
 207 212 544.947265625 8.4365234375 515 0 c 0
 493 -6.1982421875 333 7.501953125 333 0 c 0
 333 -1 332 46 261 76 c 0
 190 106 136 82 136 82 c 1
244 35 m 1
 244 35 47 -3 47 0 c 0
 47 3 36 754 36 754 c 25
 245 755 l 1
 245 755 31.912109375 211.276367188 91 107 c 0
 151.5078125 0.2177734375 243.760742188 34.7841796875 244 35 c 1
EndSplineSet
EndChar

StartChar: l
Encoding: 108 108 8
Width: 192
Flags: HW
LayerCount: 3
Fore
SplineSet
27 711 m 1
 155 710 l 1
 160.83203125 499.551757812 178.337890625 0.990234375 179 11 c 1
 136.760742188 242.822265625 95.9306640625 489.165039062 27 711 c 1
173 0 m 1
 173 0 28 1 28 0 c 8
 28 -1 17 714 17 714 c 1
 42.2236328125 474.060546875 113.168945312 237.432617188 173 0 c 1
EndSplineSet
EndChar

StartChar: v
Encoding: 118 118 9
Width: 326
Flags: HW
LayerCount: 3
Fore
SplineSet
174 59 m 9
 299 390 l 25
 242 25 l 17
 201.052326055 38.9449294963 197.860527969 47.4961135047 174 59 c 9
133 0 m 9
 16 390 l 25
 147 385 l 25
 192 149 l 25
 192 149 163.944626467 77.3441124234 156 57 c 0
 148.959696806 38.9716231762 236.399066025 1.57306344103 238 0 c 0
 240.139864938 -2.10261219658 133 0 133 0 c 9
EndSplineSet
EndChar

StartChar: c
Encoding: 99 99 10
Width: 541
Flags: HW
LayerCount: 3
Fore
SplineSet
282 0 m 5
 9 182 l 5
 253 369 l 5
 497 374 l 5
 257 185 l 5
 257 185 526 -2 526 0 c 4
 526 2 282 0 282 0 c 5
EndSplineSet
EndChar

StartChar: V
Encoding: 86 86 11
Width: 431
Flags: HW
LayerCount: 3
Fore
SplineSet
240 0 m 1
 424 696 l 1
 303 773 l 1
 240 0 l 1
232 0 m 1
 170.370117188 215.409179688 80.41015625 448.467773438 14 692 c 1
 151 771 l 1
 232 0 l 1
EndSplineSet
EndChar

StartChar: i
Encoding: 105 105 12
Width: 301
Flags: HW
LayerCount: 3
Fore
SplineSet
29 413 m 5
 129.873046875 357.995117188 193.459960938 360.348632812 273 416 c 5
 171.495117188 442.372070312 147.500976562 493.314453125 155 565 c 5
 148.721679688 502.98828125 144.110351562 440.901367188 29 413 c 5
10 0 m 1
 291 0 l 1
 123.567382812 101.426757812 187.83984375 309.762695312 290 398 c 5
 188.266601562 326.98828125 99.9130859375 354.966796875 14 401 c 5
 172.75390625 292.584960938 151.061523438 81.765625 10 0 c 1
EndSplineSet
EndChar

StartChar: I
Encoding: 73 73 13
Width: 303
Flags: HW
LayerCount: 3
Fore
SplineSet
39 651 m 21
 113 598.551757812 190 597.541015625 264 649 c 9
 152 777 l 29
 39 651 l 21
42 155 m 1
 107.30078125 99.1123046875 179.07421875 86.205078125 263 154 c 1
 168.556640625 317.288085938 204.28125 474.348632812 264 635 c 1
 188.745327867 561.25607956 112.690319402 573.792568177 40 639 c 1
 96.798828125 472.5859375 142.233398438 310.930664062 42 155 c 1
150 0 m 1
 260 137 l 1
 169.590820312 66.765625 104.458984375 94.279296875 43 136 c 1
 150 0 l 1
EndSplineSet
EndChar

StartChar: Ccaron
Encoding: 200 268 14
Width: 426
Flags: HW
LayerCount: 3
Fore
SplineSet
69 734 m 1
 74 522 l 1
 322 733 l 1
 198 734 l 1
 142 636 l 1
 130 734 l 1
 69 734 l 1
399 0 m 1
 399 0 71 -2 71 0 c 8
 71 2 54 751 54 751 c 1
 401 751 l 17
 -121.885742188 392.592773438 96.794921875 187.653320312 399 0 c 1
EndSplineSet
EndChar

StartChar: ccaron
Encoding: 232 269 15
Width: 546
Flags: HW
LayerCount: 3
Fore
SplineSet
184 304 m 1
 312 236 l 1
 469 391 l 1
 318 387 l 1
 300 302 l 1
 261 360 l 1
 184 304 l 1
301 0 m 25
 8 200 l 1
 298 402 l 25
 529 405 l 25
 333 210 l 25
 333 210 530 -3 530 0 c 0
 530 3 388 -2 301 0 c 25
EndSplineSet
EndChar

StartChar: Cacute
Encoding: 198 262 16
Width: 441
Flags: HW
LayerCount: 3
Fore
SplineSet
46 580 m 5
 50 706 l 1
 208 710 l 1
 129.760742188 660.6796875 113.236328125 631.48046875 46 580 c 5
27 0 m 1
 419 0 l 1
 -115.183983372 250.691347283 -23.1306723831 496.295904672 426 739 c 1
 25 739 l 1
 27 0 l 1
EndSplineSet
EndChar

StartChar: cacute
Encoding: 230 263 17
Width: 498
Flags: HW
LayerCount: 3
Fore
SplineSet
171 280 m 1
 229 269 l 1
 328 345 l 1
 265 349 l 1
 171 280 l 1
272 0 m 1
 9 179 l 25
 250 383 l 1
 480 381 l 1
 242 187 l 1
 242 187 484 -2 484 0 c 0
 484 2 272 0 272 0 c 1
EndSplineSet
EndChar

StartChar: J
Encoding: 74 74 18
Width: 492
Flags: HW
LayerCount: 3
Fore
SplineSet
472 746 m 25
 194 750 l 25
 194 750 218 4 218 0 c 0
 218 -4 373 455 472 746 c 25
344 0 m 1
 34 160 l 1
 23 363 l 29
 344 0 l 1
EndSplineSet
EndChar

StartChar: C
Encoding: 67 67 20
Width: 372
Flags: HW
LayerCount: 3
Fore
SplineSet
20 738 m 1024
18 0 m 1
 20 738 l 1
 346 738 l 1
 53.5458984375 489.977539062 -124.364257812 242.75 342 0 c 1
 18 0 l 1
EndSplineSet
EndChar

StartChar: j
Encoding: 106 106 21
Width: 282
Flags: HW
LayerCount: 3
Fore
SplineSet
92 413 m 0
 99.087890625 384.541015625 122.84765625 368.876953125 153 360 c 0
 169.209960938 355.227539062 215.412109375 368.858398438 234 406 c 0
 253.249023438 444.463867188 213.9921875 497.267578125 171 496 c 0
 128.319335938 494.741210938 80.091796875 460.813476562 92 413 c 0
228 -174 m 1
 20 39 l 1
 260 -56 l 1
 256.918945312 -84.861328125 231.669921875 -142.483398438 228 -174 c 1
245 368 m 21
 178.36328125 311.697265625 130.09765625 318.043945312 79 369 c 13
 153 -168 l 1
 245 368 l 21
EndSplineSet
EndChar

StartChar: s
Encoding: 115 115 23
Width: 235
Flags: HW
LayerCount: 3
Fore
SplineSet
17 239 m 1
 136 240 l 1
 195 389 l 1
 17 239 l 1
93 119 m 1
 219 117 l 1
 134 222 l 1
 18 222 l 1
 93 119 l 1
21 105 m 1
 21 105 22 1 22 0 c 0
 22 -1 217 102 217 102 c 1
 21 105 l 1
EndSplineSet
EndChar

StartChar: S
Encoding: 83 83 24
Width: 416
Flags: HW
LayerCount: 3
Fore
SplineSet
50 558 m 1
 226 522 l 1
 378 745 l 1
 188 709 164 692 50 558 c 1
215 250 m 1
 392 240 l 1
 225 491 l 1
 40 538 l 1
 215 250 l 1
37 236 m 1
 37 236 36.015625 2.822265625 37 3 c 0
 236 39 257 28 397 220 c 1
 37 236 l 1
EndSplineSet
EndChar

StartChar: Scaron
Encoding: 169 352 25
Width: 414
Flags: HW
LayerCount: 3
Fore
SplineSet
204 542 m 1
 86 568 l 17
 93.923828125 591.240234375 108.837890625 609.080078125 134 619 c 1
 186 585 l 1
 236 681 l 1
 266.625976562 705.987304688 283.272460938 695.870117188 304 696 c 1
 204 542 l 1
42 558 m 1
 218 522 l 1
 241.999023438 561.998046875 321.76171875 673.793945312 370 745 c 1
 180 709 156 692 42 558 c 1
207 250 m 1
 384 240 l 1
 217 491 l 1
 32 538 l 1
 207 250 l 1
29 236 m 5
 29 236 28.0156851178 2.82193298614 29 3 c 0
 228 39 249 28 389 220 c 1
 29 236 l 5
EndSplineSet
EndChar

StartChar: scaron
Encoding: 185 353 26
Width: 235
Flags: HW
LayerCount: 3
Fore
SplineSet
123 253 m 1
 54 254 l 1
 88 281 l 1
 115 276 l 1
 124 314 l 1
 162 344 l 1
 123 253 l 1
16 242 m 5
 136 240 l 1
 196 386 l 1
 92 356 56 340 16 242 c 5
93 119 m 1
 219 117 l 1
 134 222 l 1
 18 222 l 1
 93 119 l 1
21 105 m 1
 21 105 21.0122370347 0.155962573473 22 0 c 0
 98 -12 178 31 217 102 c 1
 21 105 l 1
EndSplineSet
EndChar

StartChar: Zcaron
Encoding: 174 381 27
Width: 586
Flags: HW
LayerCount: 3
Fore
SplineSet
223 578 m 5
 111 610 l 5
 177 636 l 5
 211 614 l 5
 243 656 l 5
 341 688 l 5
 223 578 l 5
33 606 m 5
 229 562 l 5
 470 756 l 5
 33 606 l 5
368 144 m 5
 558 111 l 5
 233 528 l 5
 29 576 l 5
 368 144 l 5
176 142 m 5
 176 142 162 7 162 6 c 4
 162 5 562 88 562 88 c 5
 176 142 l 5
EndSplineSet
EndChar

StartChar: zcaron
Encoding: 190 382 28
Width: 377
Flags: HW
LayerCount: 3
Fore
SplineSet
200 285 m 1
 121 290 l 1
 164 313 l 1
 193 296 l 1
 218 331 l 1
 276 350 l 1
 200 285 l 1
41 282 m 1
 206 268 l 1
 365 399 l 1
 41 282 l 1
178 144 m 1
 368 111 l 1
 211 242 l 1
 43 259 l 1
 178 144 l 1
22 138 m 1
 22 138 8 3 8 2 c 0
 8 1 372 88 372 88 c 1
 22 138 l 1
EndSplineSet
EndChar

StartChar: Dcroat
Encoding: 208 272 29
Width: 616
Flags: HW
LayerCount: 3
Fore
SplineSet
12 260 m 5
 282 398 l 5
 14 486 l 29
 12 260 l 5
104 0 m 13
 116 798 l 29
 608 400 l 29
 104 0 l 13
EndSplineSet
EndChar

StartChar: dcroat
Encoding: 240 273 30
Width: 418
Flags: HW
LayerCount: 3
Fore
SplineSet
14 138 m 1
 226 208 l 5
 14 246 l 1
 14 138 l 1
62 0 m 1
 58 400 l 1
 406 198 l 1
 62 0 l 1
EndSplineSet
EndChar
